<?xml version="1.0" encoding="UTF-8"?>
<svg version="1.1" xmlns="http://www.w3.org/2000/svg" width="100" height="117">
<path d="M0 0 C33 0 66 0 100 0 C100 3.96 100 7.92 100 12 C67 12 34 12 0 12 C0 8.04 0 4.08 0 0 Z " fill="#5F5F5F" transform="translate(0,81)"/>
<path d="M0 0 C33 0 66 0 100 0 C100 3.96 100 7.92 100 12 C67 12 34 12 0 12 C0 8.04 0 4.08 0 0 Z " fill="#5F5F5F" transform="translate(0,64)"/>
<path d="M0 0 C33 0 66 0 100 0 C100 3.96 100 7.92 100 12 C67 12 34 12 0 12 C0 8.04 0 4.08 0 0 Z " fill="#5F5F5F" transform="translate(0,47)"/>
<path d="M0 0 C33 0 66 0 100 0 C100 3.96 100 7.92 100 12 C67 12 34 12 0 12 C0 8.04 0 4.08 0 0 Z " fill="#5F5F5F" transform="translate(0,30)"/>
</svg>
